HIERARCHY
ROOT Hips
{
	OFFSET 0.000000 0.000000 0.000000
	CHANNELS 6 Xposition Yposition Zposition Zrotation Yrotation Xrotation 
	JOINT LHipJoint
	{
		OFFSET 0.000000 0.000000 0.000000
		CHANNELS 3 Zrotation Yrotation Xrotation
		JOINT LeftUpLeg
		{
			OFFSET 1.363060 -1.794630 0.839290
			CHANNELS 3 Zrotation Yrotation Xrotation
			JOINT LeftLeg
			{
				OFFSET 2.448110 -6.726130 0.000000
				CHANNELS 3 Zrotation Yrotation Xrotation
				JOINT LeftFoot
				{
					OFFSET 2.562200 -7.039590 0.000000
					CHANNELS 3 Zrotation Yrotation Xrotation
					JOINT LeftToeBase
					{
						OFFSET 0.157640 -0.433110 2.322550
						CHANNELS 3 Zrotation Yrotation Xrotation
						End Site
						{
							OFFSET 0.000000 0.000000 0.000000
						}
					}
				}
			}
		}
	}
	JOINT RHipJoint
	{
		OFFSET 0.000000 0.000000 0.000000
		CHANNELS 3 Zrotation Yrotation Xrotation
		JOINT RightUpLeg
		{
			OFFSET -1.305520 -1.794630 0.839290
			CHANNELS 3 Zrotation Yrotation Xrotation
			JOINT RightLeg
			{
				OFFSET -2.542530 -6.985550 0.000000
				CHANNELS 3 Zrotation Yrotation Xrotation
				JOINT RightFoot
				{
					OFFSET -2.568260 -7.056230 0.000000
					CHANNELS 3 Zrotation Yrotation Xrotation
					JOINT RightToeBase
					{
						OFFSET -0.164730 -0.452590 2.363150
						CHANNELS 3 Zrotation Yrotation Xrotation
						End Site
						{
							OFFSET 0.000000 0.000000 0.000000
						}
					}
				}
			}
		}
	}
	JOINT LowerBack
	{
		OFFSET 0.000000 0.000000 0.000000
		CHANNELS 3 Zrotation Yrotation Xrotation
		JOINT Spine
		{
			OFFSET 0.028270 2.035590 -0.193380
			CHANNELS 3 Zrotation Yrotation Xrotation
			JOINT Spine1
			{
				OFFSET 0.056720 2.048850 -0.042750
				CHANNELS 3 Zrotation Yrotation Xrotation
				JOINT Neck
				{
					OFFSET 0.000000 0.000000 0.000000
					CHANNELS 3 Zrotation Yrotation Xrotation
					JOINT Neck1
					{
						OFFSET -0.054170 1.746240 0.172020
						CHANNELS 3 Zrotation Yrotation Xrotation
						JOINT Head
						{
							OFFSET 0.104070 1.761360 -0.123970
							CHANNELS 3 Zrotation Yrotation Xrotation
							End Site
							{
								OFFSET 0.000000 0.000000 0.000000
							}
						}
					}
				}
				JOINT LeftShoulder
				{
					OFFSET 0.000000 0.000000 0.000000
					CHANNELS 3 Zrotation Yrotation Xrotation
					JOINT LeftArm
					{
						OFFSET 3.362410 1.200890 -0.311210
						CHANNELS 3 Zrotation Yrotation Xrotation
						JOINT LeftForeArm
						{
							OFFSET 4.983000 -0.000000 -0.000000
							CHANNELS 3 Zrotation Yrotation Xrotation
							JOINT LeftHand
							{
								OFFSET 3.483560 -0.000000 -0.000000
								CHANNELS 3 Zrotation Yrotation Xrotation
								JOINT LeftFingerBase
								{
									OFFSET 0.000000 0.000000 0.000000
									CHANNELS 3 Zrotation Yrotation Xrotation
									JOINT LeftHandIndex1
									{
										OFFSET 0.715260 -0.000000 -0.000000
										CHANNELS 3 Zrotation Yrotation Xrotation
										End Site
										{
											OFFSET 0.000000 0.000000 0.000000
										}
									}
								}
								JOINT LThumb
								{
									OFFSET 0.000000 0.000000 0.000000
									CHANNELS 3 Zrotation Yrotation Xrotation
									End Site
									{
										OFFSET 0.000000 0.000000 0.000000
									}
								}
							}
						}
					}
				}
				JOINT RightShoulder
				{
					OFFSET 0.000000 0.000000 0.000000
					CHANNELS 3 Zrotation Yrotation Xrotation
					JOINT RightArm
					{
						OFFSET -3.136600 1.374050 -0.404650
						CHANNELS 3 Zrotation Yrotation Xrotation
						JOINT RightForeArm
						{
							OFFSET -5.241900 -0.000000 -0.000000
							CHANNELS 3 Zrotation Yrotation Xrotation
							JOINT RightHand
							{
								OFFSET -3.444170 -0.000000 -0.000000
								CHANNELS 3 Zrotation Yrotation Xrotation
								JOINT RightFingerBase
								{
									OFFSET 0.000000 0.000000 0.000000
									CHANNELS 3 Zrotation Yrotation Xrotation
									JOINT RightHandIndex1
									{
										OFFSET -0.622530 -0.000000 -0.000000
										CHANNELS 3 Zrotation Yrotation Xrotation
										End Site
										{
											OFFSET 0.000000 0.000000 0.000000
										}
									}
								}
								JOINT RThumb
								{
									OFFSET 0.000000 0.000000 0.000000
									CHANNELS 3 Zrotation Yrotation Xrotation
									End Site
									{
										OFFSET 0.000000 0.000000 0.000000
									}
								}
							}
						}
					}
				}
			}
		}
	}
}
MOTION
Frames: 8
Frame Time: 0.008333
0.615945 17.956146 5.519710 -1.498247 3.768678 2.834358 -2.788097 -0.592886 1.397034 3.578684 -0.432489 -2.278837 -0.486022 0.633082 0.840555 0.067614 4.161330 10.575345 0.000000 0.000000 0.000000 1.701657 1.025620 -0.393152 12.840827 0.455079 -0.262030 -0.412024 -5.484080 13.183956 4.876503 -25.098452 -6.355306 -0.061000 1.594000 -4.384800 -0.081181 -0.350619 1.728250 1.944116 -0.629224 2.703459 1.151111 -0.272739 -2.556194 2.865510 0.736774 -24.079143 0.940178 0.238094 9.906225 -2.508700 0.096800 8.650500 5.057136 -0.798694 0.014791 -34.800534 9.150327 -28.394124 17.111741 -23.287871 -2.176000 0.826851 1.231906 8.380033 15.045944 6.496320 1.314200 -7.125000 0.000000 0.000000 -10.169300 35.116600 2.501200 -4.197210 1.103147 0.537773 28.117650 -10.251754 -34.795350 -15.412797 21.561881 -2.115035 -0.210987 -1.193928 6.647539 -12.681325 -10.592390 2.083000 7.125000 0.000000 0.000000 12.425200 -39.263700 1.788600 
0.613203 17.956342 5.519514 -1.467126 3.785399 2.848442 -2.788659 -0.594038 1.395600 3.578571 -0.432448 -2.278965 -0.486021 0.633166 0.840529 0.067694 4.161412 10.575306 0.000000 0.000000 0.000000 1.701003 1.025287 -0.394629 12.820273 0.487980 -0.296297 -0.417537 -5.507543 13.251964 4.881229 -25.112185 -6.405918 -0.062700 1.615800 -4.444900 -0.113561 -0.338452 1.716190 1.931248 -0.613990 2.671235 1.159724 -0.263761 -2.566310 2.821851 0.698765 -24.016169 0.986650 0.203436 9.976762 -2.492100 0.087600 8.660100 5.059525 -0.790651 0.018163 -34.776663 8.991274 -28.489441 17.064041 -23.228528 -2.162393 0.832102 1.221785 8.460569 15.075751 6.416717 1.298300 -7.125000 0.000000 0.000000 -10.138400 35.045400 2.511200 -4.194766 1.108486 0.535283 28.146727 -10.382873 -34.425950 -15.482517 21.648281 -2.139840 -0.203294 -1.216212 6.051671 -12.759293 -10.959821 2.172700 7.125000 0.000000 0.000000 12.434700 -39.615000 1.680500 
0.610069 17.956146 5.519416 -1.430061 3.756813 2.844039 -2.789664 -0.595902 1.395357 3.579217 -0.432924 -2.278320 -0.485980 0.632537 0.840796 0.067482 4.160771 10.575538 0.000000 0.000000 0.000000 1.700378 1.022580 -0.393188 12.790918 0.510974 -0.306932 -0.419517 -5.516862 13.277421 4.878814 -25.102781 -6.400145 -0.062700 1.615800 -4.445000 -0.157505 -0.310767 1.700354 1.919135 -0.581665 2.685703 1.177168 -0.243335 -2.549123 2.937707 0.779558 -23.893869 0.839809 0.264843 9.739051 -2.549000 0.097400 8.570200 5.065059 -0.807895 0.022196 -34.776053 8.917956 -28.439011 17.054624 -23.204876 -2.156803 0.833007 1.210422 8.527572 15.069213 6.288962 1.267500 -7.125000 0.000000 0.000000 -10.127700 34.926000 2.538300 -4.190876 1.089098 0.529832 28.151023 -10.422246 -34.349331 -15.484386 21.648859 -2.141205 -0.203374 -1.218195 5.868821 -12.807465 -10.966304 2.181600 7.125000 0.000000 0.000000 12.397800 -39.623100 1.672800 
0.607816 17.956342 5.519612 -1.457843 3.762556 2.840980 -2.787804 -0.594594 1.393628 3.578304 -0.432286 -2.279332 -0.486040 0.633439 0.840440 0.067810 4.161673 10.575179 0.000000 0.000000 0.000000 1.701456 1.026164 -0.396963 12.831671 0.514709 -0.310381 -0.421400 -5.524600 13.300793 4.880898 -25.108857 -6.428572 -0.062300 1.610100 -4.429300 -0.148273 -0.329373 1.720814 1.942303 -0.601243 2.622630 1.186126 -0.257201 -2.590670 2.828588 0.701678 -23.947988 0.981090 0.215112 10.090725 -2.491400 0.099400 8.684800 5.058105 -0.784472 0.020534 -34.776375 8.969736 -28.258226 17.063129 -23.209935 -2.160158 0.837672 1.209616 8.444034 15.142353 6.267693 1.268300 -7.125000 0.000000 0.000000 -10.070300 34.908200 2.528000 -4.196957 1.111804 0.538331 28.131505 -10.379698 -34.338791 -15.471077 21.628344 -2.135410 -0.197469 -1.220500 5.958999 -12.663822 -11.052825 2.176300 7.125000 0.000000 0.000000 12.531800 -39.697100 1.668300 
0.605368 17.956244 5.519807 -1.477858 3.762580 2.834138 -2.786895 -0.594407 1.392880 3.578154 -0.432159 -2.279544 -0.486062 0.633624 0.840369 0.067894 4.161854 10.575096 0.000000 0.000000 0.000000 1.702163 1.027046 -0.398120 12.864595 0.522946 -0.304945 -0.421968 -5.527468 13.308776 4.882930 -25.116226 -6.440370 -0.062300 1.611100 -4.432100 -0.141529 -0.331145 1.719978 1.957589 -0.602087 2.600549 1.189541 -0.258606 -2.600029 2.802079 0.685235 -23.922979 1.021046 0.207409 10.195493 -2.474500 0.104100 8.712900 5.055726 -0.777322 0.020878 -34.776476 8.956171 -28.156187 17.066306 -23.208870 -2.160991 0.839428 1.208170 8.385395 15.171163 6.241544 1.264400 -7.125000 0.000000 0.000000 -10.046000 34.884700 2.527600 -4.198551 1.117817 0.540512 28.128015 -10.384246 -34.252027 -15.476018 21.631236 -2.136319 -0.194431 -1.223059 5.877494 -12.626874 -11.097186 2.179300 7.125000 0.000000 0.000000 12.571400 -39.736600 1.661300 
0.603115 17.955951 5.520199 -1.508503 3.765323 2.819870 -2.785840 -0.594199 1.392390 3.578145 -0.432112 -2.279623 -0.486081 0.633692 0.840343 0.067933 4.161918 10.575057 0.000000 0.000000 0.000000 1.702988 1.027737 -0.398652 12.907705 0.516677 -0.283884 -0.420649 -5.523200 13.295468 4.883715 -25.120540 -6.439939 -0.062400 1.611900 -4.434400 -0.123971 -0.335413 1.718173 1.977000 -0.606185 2.586774 1.188908 -0.261504 -2.604224 2.791467 0.679246 -23.877197 1.047912 0.207142 10.271520 -2.463300 0.110700 8.729200 5.053222 -0.772803 0.021008 -34.781031 8.947930 -28.072062 17.072670 -23.213563 -2.163040 0.840119 1.209374 8.328556 15.188661 6.247950 1.267200 -7.125000 0.000000 0.000000 -10.033900 34.891100 2.522900 -4.199612 1.121896 0.542039 28.124214 -10.386659 -34.148569 -15.486112 21.640486 -2.138502 -0.191359 -1.225342 5.802715 -12.589885 -11.135583 2.181000 7.125000 0.000000 0.000000 12.609500 -39.770200 1.655900 
0.601254 17.955559 5.520983 -1.542793 3.772910 2.800495 -2.784894 -0.594091 1.392154 3.578267 -0.432146 -2.279564 -0.486094 0.633641 0.840362 0.067929 4.161863 10.575065 0.000000 0.000000 0.000000 1.703725 1.028158 -0.398551 12.952087 0.494299 -0.261582 -0.419511 -5.519353 13.283613 4.882058 -25.115178 -6.436169 -0.062600 1.614900 -4.442500 -0.099259 -0.342085 1.712514 1.995595 -0.613841 2.580587 1.183226 -0.266010 -2.602293 2.786742 0.676663 -23.803094 1.071516 0.207045 10.315738 -2.454200 0.116100 8.731100 5.051215 -0.770734 0.021199 -34.785912 8.931570 -28.032416 17.075516 -23.216073 -2.164216 0.839831 1.211936 8.298994 15.189458 6.278303 1.274600 -7.125000 0.000000 0.000000 -10.037400 34.919700 2.516600 -4.199536 1.124480 0.542425 28.124902 -10.403344 -33.979415 -15.511126 21.668225 -2.145430 -0.187447 -1.229442 5.671504 -12.562079 -11.200228 2.189600 7.125000 0.000000 0.000000 12.645300 -39.828800 1.642100 
0.599687 17.954971 5.522060 -1.573193 3.782220 2.775835 -2.784265 -0.594393 1.392112 3.578610 -0.432332 -2.279276 -0.486096 0.633378 0.840468 0.067847 4.161594 10.575153 0.000000 0.000000 0.000000 1.704191 1.027866 -0.397604 12.990233 0.459642 -0.235583 -0.418259 -5.515127 13.270259 4.878084 -25.101654 -6.427118 -0.062900 1.618600 -4.452700 -0.076128 -0.347517 1.703640 2.010102 -0.620875 2.584304 1.175893 -0.269144 -2.593636 2.812706 0.693570 -23.694960 1.061510 0.219079 10.283254 -2.459500 0.122100 8.704400 5.050918 -0.774061 0.021955 -34.790594 8.897183 -28.050676 17.071909 -23.211825 -2.163367 0.838615 1.214446 8.326050 15.168744 6.321924 1.283500 -7.125000 0.000000 0.000000 -10.058400 34.960700 2.511900 -4.197908 1.121796 0.540928 28.130161 -10.434816 -33.772992 -15.545900 21.708530 -2.155180 -0.182889 -1.233993 5.516174 -12.534521 -11.268864 2.199000 7.125000 0.000000 0.000000 12.681800 -39.891300 1.627200 
